<?xml version="1.0" encoding="utf-8"?>
<!-- Generator: Adobe Illustrator 21.1.0, SVG Export Plug-In . SVG Version: 6.00 Build 0)  -->
<svg version="1.1" id="Layer_1" xmlns="http://www.w3.org/2000/svg" xmlns:xlink="http://www.w3.org/1999/xlink" x="0px" y="0px"
	 viewBox="0 0 342.1 217.9" style="enable-background:new 0 0 342.1 217.9;" xml:space="preserve">
<style type="text/css">
	.st0{fill:#FFFFFF;}
	.st1{fill:url(#SVGID_1_);}
</style>
<path class="st0" d="M108.3,76.1H88c-0.8,0-1.5,0.5-1.8,1.2L56,151.2c-0.3,0.6,0.2,1.3,0.9,1.3h23.2L98.2,105l18.1,47.4h18.6v-14.6
	l-24.8-60.5C109.8,76.6,109.1,76.1,108.3,76.1"/>
<path d="M124.4,65.6l-2.7-13.4c-0.1-0.4-0.7-0.4-0.8,0l-2.7,13.4c0,0.2-0.2,0.3-0.3,0.3l-13.4,2.7c-0.4,0.1-0.4,0.7,0,0.8l13.4,2.7
	c0.2,0,0.3,0.2,0.3,0.3l2.7,13.4c0.1,0.4,0.7,0.4,0.8,0l2.7-13.4c0-0.2,0.2-0.3,0.3-0.3l13.4-2.7c0.4-0.1,0.4-0.7,0-0.8L124.7,66
	C124.6,65.9,124.4,65.8,124.4,65.6"/>
<path class="st0" d="M275.8,129.4c-0.4-5-2.5-9-5.8-12c-0.6-0.6-1.4-1-2.3-1.2l-8.1-2.2c-0.4-0.1-0.4-0.6,0-0.7l6.8-1.8
	c0.7-0.2,1.3-0.5,1.7-1c2.9-2.9,4.8-6.8,5.2-11.4c0.9-12-6.6-22-22.2-22.9v-0.1h-17.6h-19c-0.8,0-1.5,0.7-1.5,1.5v60.9l-6.7,10.1
	c-0.3,0.4-0.4,0.9-0.4,1.4v1.3c0,0.6,0.5,1.1,1.1,1.1h6.1h20.5h17.6C268.4,152.4,276.7,142.1,275.8,129.4 M233.5,94h14.1
	c3.2,0,5.7,1.9,5.7,5.7c0,3.9-2.6,6.2-5.7,6.2h-14.1V94z M250.1,134.5h-16.6v-11.9h16.6c3.2,0,5.7,2.4,5.7,6.2
	C255.8,132.6,253.3,134.5,250.1,134.5"/>
<path d="M106.1,152.5h5.9l-10.8-28.2h-5.9l-6.2,16.1c-1.6,4.2-2.9,10.2,2,12.1c2.4,0.9,7,0.2,8.8-5.1l2.1-5.4L106.1,152.5z
	 M99.6,135.4l-3.4,9.2c-0.8,2.1-1.8,3.5-3,3.1c-1.4-0.5,0-3.8,0.9-6c0.7-1.9,4-10.5,4-10.5L99.6,135.4z"/>
<path d="M189.3,101.1l16.5-14.5c0.4-0.3,0.4-0.9,0-1.3l-16.5-14.5c-0.6-0.5-1.4-0.1-1.4,0.6v3.9c0,0.5-0.4,0.9-0.9,0.9h-1.5h-2.2
	h-0.9h-6.7h-12h-20.5v76.3h20.5h15c13.5,0,25.8-7,25.8-24.4s-12.3-24.4-25.8-24.4h-15v-7.8h12h6.7h0.9h2.2h1.5
	c0.5,0,0.9,0.4,0.9,0.9v3.8C187.9,101.2,188.8,101.6,189.3,101.1 M178.8,120.7c4.1,0,7.3,2.1,7.3,7.3c0,5.2-3.3,7.3-7.3,7.3h-15
	v-14.7H178.8z"/>
<linearGradient id="SVGID_1_" gradientUnits="userSpaceOnUse" x1="136.9925" y1="136.482" x2="136.9925" y2="77.8488">
	<stop  offset="0" style="stop-color:#FFFFFF"/>
	<stop  offset="0.2348" style="stop-color:#FFFFFF"/>
	<stop  offset="0.7043" style="stop-color:#000000"/>
	<stop  offset="1" style="stop-color:#000000"/>
</linearGradient>
<polygon class="st1" points="130.6,76.1 130.6,137.9 134.9,137.9 134.9,80.4 143.4,80.4 143.4,76.1 "/>
</svg>
