<svg id="Layer_1" data-name="Layer 1" xmlns="http://www.w3.org/2000/svg" xmlns:xlink="http://www.w3.org/1999/xlink" viewBox="0 0 219.95 100.93"><defs><style>.cls-1{fill:#fff;}.cls-2{fill:url(#Безымянный_градиент);}</style><linearGradient id="Безымянный_градиент" x1="81.09" y1="31.62" x2="81.09" y2="90.25" gradientTransform="matrix(1, 0, 0, -1, 0, 116.2)" gradientUnits="userSpaceOnUse"><stop offset="0" stop-color="#fff"/><stop offset="0.23" stop-color="#fff"/><stop offset="0.7"/><stop offset="1"/></linearGradient></defs><title>Монтажная область 1</title><path class="cls-1" d="M52.39,24.2H32.09a2,2,0,0,0-1.8,1.2L.09,99.3a.93.93,0,0,0,.9,1.3h23.2l18.1-47.5,18.1,47.4H79V85.9L54.19,25.4a2,2,0,0,0-1.8-1.2"/><path d="M68.49,13.7,65.79.3a.42.42,0,0,0-.8,0l-2.7,13.4a.32.32,0,0,1-.3.3l-13.4,2.7a.42.42,0,0,0,0,.8L62,20.2a.32.32,0,0,1,.3.3L65,33.9a.42.42,0,0,0,.8,0l2.7-13.4a.32.32,0,0,1,.3-.3l13.4-2.7a.42.42,0,0,0,0-.8l-13.4-2.6c-.1-.1-.3-.2-.3-.4"/><path class="cls-1" d="M219.89,77.5a17.65,17.65,0,0,0-5.8-12,4.64,4.64,0,0,0-2.3-1.2l-8.1-2.2a.35.35,0,0,1,0-.7l6.8-1.8a3.23,3.23,0,0,0,1.7-1,18.1,18.1,0,0,0,5.2-11.4c.9-12-6.6-22-22.2-22.9v-.1h-36.6a1.54,1.54,0,0,0-1.5,1.5V86.6l-6.7,10.1a2.3,2.3,0,0,0-.4,1.4v1.3a1.11,1.11,0,0,0,1.1,1.1h44.2c17.2,0,25.5-10.3,24.6-23m-42.3-35.4h14.1c3.2,0,5.7,1.9,5.7,5.7s-2.6,6.2-5.7,6.2h-14.1Zm16.6,40.5h-16.6V70.7h16.6c3.2,0,5.7,2.4,5.7,6.2s-2.5,5.7-5.7,5.7"/><path d="M50.19,100.6h5.9L45.29,72.4h-5.9l-6.2,16.1c-1.6,4.2-2.9,10.2,2,12.1,2.4.9,7,.2,8.8-5.1l2.1-5.4Zm-6.5-17.1-3.4,9.2c-.8,2.1-1.8,3.5-3,3.1-1.4-.5,0-3.8.9-6,.7-1.9,4-10.5,4-10.5Z"/><path d="M133.39,49.2l16.5-14.5a.85.85,0,0,0,0-1.3l-16.5-14.5a.83.83,0,0,0-1.4.6v3.9a.9.9,0,0,1-.9.9H87.29v76.3h35.5c13.5,0,25.8-7,25.8-24.4s-12.3-24.4-25.8-24.4h-15V44h23.3a.9.9,0,0,1,.9.9v3.8a.84.84,0,0,0,1.4.5m-10.5,19.6c4.1,0,7.3,2.1,7.3,7.3s-3.3,7.3-7.3,7.3h-15V68.7h15Z"/><polygon class="cls-2" points="74.69 24.2 74.69 86 78.99 86 78.99 28.5 87.49 28.5 87.49 24.2 74.69 24.2"/></svg>