<svg width="45" height="45" viewBox="0 0 45 45" fill="none" xmlns="http://www.w3.org/2000/svg">
<circle cx="22.5" cy="22.5" r="22.5" fill="#0A0A0A"/>
<path fill-rule="evenodd" clip-rule="evenodd" d="M14.8974 26.4399H16.2748V24.0855H18.443V22.7734H16.2748V21.2657H18.899V19.935H14.8974V26.4399ZM28.8 12.98L31.5999 15.78V30.6H13.4V15.78L16.2 12.98L19.35 16.13L22.5 12.98L25.65 16.13L28.8 12.98ZM28.8 11L25.65 14.1501L22.5 11L19.35 14.1501L16.2 11L12 15.2001V32H33V15.2001L28.8 11ZM26.8992 23.7226L27.2837 21.2657H28.2051L28.5898 23.7226H26.8992ZM29.3776 19.935H26.1485L25.1528 26.319V26.4399H26.4928V26.319L26.6981 25.0068H28.7908L28.9962 26.319V26.4399H30.3828V26.319L29.3776 19.935ZM22.0725 24.0854H22.9195V25.1835C22.7426 25.2022 22.4726 25.2116 22.1098 25.2116C21.0674 25.2116 21.0117 24.951 21.0117 23.1827C21.0117 21.4146 21.086 21.1541 22.2958 21.1541C23.0495 21.1541 23.5336 21.2378 23.8592 21.3496L24.1199 20.3353V20.1678C23.6172 19.9723 23.1332 19.8514 22.2958 19.8514C19.7737 19.8514 19.625 21.0424 19.625 23.1921C19.625 25.3232 19.7553 26.5144 22.1098 26.5144C23.0868 26.5144 23.8871 26.3748 24.1477 26.2909L24.2594 26.2444V22.7641H22.0725V24.0854Z" fill="white"/>
</svg>
