<svg width="45" height="45" viewBox="0 0 45 45" fill="none" xmlns="http://www.w3.org/2000/svg">
<g clip-path="url(#clip0)">
<path d="M45.0004 22.504C45.0004 26.9552 43.6804 31.3064 41.2072 35.0073C38.7341 38.7083 35.219 41.5926 31.1065 43.2957C26.994 44.9987 22.4687 45.4439 18.1032 44.575C13.7376 43.706 9.72782 41.5619 6.5809 38.4139C3.43397 35.2658 1.29131 31.2553 0.423882 26.8894C-0.443542 22.5235 0.00324413 17.9985 1.70773 13.8866C3.41222 9.77465 6.29785 6.26056 9.99965 3.78874C13.7015 1.31693 18.0532 -0.00156869 22.5044 1.40063e-06C28.4714 0.00210618 34.1933 2.37398 38.4119 6.59407C42.6305 10.8142 45.0004 16.5369 45.0004 22.504Z" fill="white"/>
<path d="M38.4113 6.58852C37.6668 5.84076 36.8711 5.14583 36.0299 4.50879L23.1785 20.3846L36.8714 39.8166C37.4032 39.3721 37.9192 38.9117 38.4113 38.4195C40.5018 36.3297 42.1602 33.8486 43.2916 31.1178C44.423 28.3869 45.0054 25.46 45.0054 22.504C45.0054 19.5481 44.423 16.6211 43.2916 13.8903C42.1602 11.1595 40.5018 8.67831 38.4113 6.58852Z" fill="#0A0A0A"/>
<path d="M11.9067 18.5668L26.6712 0.389012C21.6347 -0.553534 16.4274 0.247163 11.9067 2.65925V18.5668Z" fill="#0A0A0A"/>
<path d="M15.8757 27.2588L11.9067 31.8231V42.3408C16.6179 44.8577 22.0696 45.62 27.2904 44.492L15.8757 27.2588Z" fill="#0A0A0A"/>
</g>
<defs>
<clipPath id="clip0">
<rect width="45" height="45" fill="white"/>
</clipPath>
</defs>
</svg>
