<svg width="92" height="44" viewBox="0 0 92 44" fill="none" xmlns="http://www.w3.org/2000/svg">
<path d="M47.3655 44H35.2105L32.1555 35.94H15.2555L12.2655 44H0.565469L17.9205 0.449999H29.9455L47.3655 44ZM23.6405 13.58L18.7005 26.84H28.7105L23.6405 13.58Z" fill="white"/>
<path d="M91.9738 0.449999V44H81.2488V29.96H65.9738C64.3271 29.96 63.5038 30.7617 63.5038 32.365V44H52.7788V30.48C52.7788 25.8 54.6421 23.005 58.3688 22.095V21.835C55.5088 19.7983 54.0788 16.7217 54.0788 12.605C54.0788 8.705 55.4654 5.715 58.2388 3.635C61.0554 1.51166 64.8038 0.449999 69.4838 0.449999H91.9738ZM70.3938 20.47H81.2488V10.85H70.3288C68.6821 10.85 67.3388 11.2617 66.2988 12.085C65.2588 12.9083 64.7388 14.0567 64.7388 15.53C64.7388 17.09 65.2371 18.3033 66.2338 19.17C67.2738 20.0367 68.6604 20.47 70.3938 20.47Z" fill="black"/>
</svg>
